# xmcd
#
# Track frame offsets:
#	150
#	13321
#	27242
#	41116
#	63525
#	80094
#	99232
#	110461
#	131415
#	148963
#	164644
#	178646
#	196782
#
# Disc length: 2816 seconds
#
# Revision: 0
# Processed by: cddbd v1.5.2PL0 Copyright (c) Steve Scherf et al.
# Submitted via: dBpowerAMP V4.0
#
DISCID=b90afe0d
DTITLE=Detonators - Top Night Out
DYEAR=2007
DGENRE=Blues
TTITLE0=Second In Charge
TTITLE1=What Happened To My Cash
TTITLE2=Jason You're A Lout
TTITLE3=Human Torque Wrench
TTITLE4=Time Machine
TTITLE5=She Don't Need Me
TTITLE6=Van Diemen's Hop
TTITLE7=All Of Me (All Over You)
TTITLE8=Off My Chops
TTITLE9=EH Leatherette
TTITLE10=You Sexy Thing
TTITLE11=Sugar Coated Love
TTITLE12=Top Night Out
EXTD=
EXTT0=
EXTT1=
EXTT2=
EXTT3=
EXTT4=
EXTT5=
EXTT6=
EXTT7=
EXTT8=
EXTT9=
EXTT10=
EXTT11=
EXTT12=
PLAYORDER=
